<!--?xml version="1.0" encoding="utf-8"?-->
<!-- Generator: Adobe Illustrator 15.1.0, SVG Export Plug-In . SVG Version: 6.00 Build 0)  -->

<svg version="1.1" id="_x32_" xmlns="http://www.w3.org/2000/svg" xmlns:xlink="http://www.w3.org/1999/xlink" x="0px" y="0px" width="512px" height="512px" viewBox="0 0 512 512" style="width: 256px; height: 256px; opacity: 1;" xml:space="preserve">
<style type="text/css">

	.st0{fill:#4B4B4B;}

</style>
<g>
	<path class="st0" d="M479.031,227.547c-21.266-21.672-49.656-34.063-79.906-34.859l-10.234-0.266l-2.156-10
		c-5.719-26.469-20.484-50.547-41.609-67.828c-21.703-17.703-48-27.078-76.094-27.094c-28.375,0.016-54.906,9.578-76.75,27.641
		c-21.25,17.609-35.906,42.109-41.281,68.969l-2.5,12.438l-12.563-2.188c-7.172-1.234-13.688-1.844-19.969-1.844
		c-30.922,0.016-60.031,12.078-82.016,33.984C12.078,248.438,0.016,277.563,0,308.516c0.016,30.922,12.078,60.031,34,82.016
		c21.938,21.875,51.031,33.953,81.984,33.969h280.047c30.938-0.016,60.031-12.094,82.016-34c21.875-21.953,33.938-51.063,33.953-82
		C511.984,278.141,500.281,249.406,479.031,227.547z" style="fill: rgb(249, 249, 255);"></path>
</g>
</svg>
