<!--?xml version="1.0" encoding="utf-8"?-->
<!-- Generator: Adobe Illustrator 18.1.1, SVG Export Plug-In . SVG Version: 6.00 Build 0)  -->

<svg version="1.1" id="_x32_" xmlns="http://www.w3.org/2000/svg" xmlns:xlink="http://www.w3.org/1999/xlink" x="0px" y="0px" viewBox="0 0 512 512" style="width: 256px; height: 256px; opacity: 1;" xml:space="preserve">
<style type="text/css">
	.st0{fill:#4B4B4B;}
</style>
<g>
	<path class="st0" d="M461.403,306.904l-14.831-25.759l-58.738,33.807l-73.762-42.59c2.722-7,4.274-14.588,4.274-22.556
		c0-4.097-0.424-8.089-1.178-11.959l70.674-40.806l58.73,33.814l14.831-25.759l-43.814-25.225l67.544-39l-14.863-25.742l-67.544,39
		l0.06-50.556l-29.726-0.032l-0.081,67.766l-68.391,39.484c-8.444-10.5-20.222-18.161-33.726-21.468v-76.984l58.649-33.951
		l-14.895-25.726l-43.754,25.33V0h-29.726v77.992l-43.754-25.33l-14.895,25.726l58.65,33.951v76.984
		c-13.504,3.306-25.283,10.968-33.726,21.468l-68.392-39.484l-0.08-67.774l-29.726,0.032l0.06,50.565l-67.544-39l-14.863,25.742
		l67.544,39l-43.815,25.225l14.831,25.759l58.73-33.814l70.674,40.806c-0.754,3.87-1.177,7.862-1.177,11.959
		c0,7.968,1.552,15.556,4.274,22.556l-73.762,42.59l-58.738-33.807l-14.831,25.759l43.819,25.226l-67.548,38.999l14.863,25.742
		l67.544-39l-0.06,50.565l29.726,0.032l0.08-67.774l76.074-43.92c7.367,6.428,16.245,11.113,26.044,13.516v89.372l-58.65,33.951
		l14.895,25.726l43.754-25.33V512h29.726v-77.992l43.754,25.33l14.895-25.726l-58.649-33.951V310.29
		c9.798-2.403,18.677-7.088,26.044-13.516l76.073,43.92l0.081,67.774l29.726-0.032l-0.06-50.565l67.544,39l14.863-25.742
		l-67.549-38.999L461.403,306.904z M279.064,272.871c-5.947,5.927-14.007,9.548-23.064,9.556c-9.057-0.008-17.118-3.63-23.065-9.556
		c-5.928-5.952-9.548-14.008-9.556-23.065c0.008-9.056,3.629-17.113,9.556-23.065c5.947-5.927,14.008-9.548,23.065-9.556
		c9.056,0.008,17.116,3.629,23.064,9.556c5.928,5.952,9.549,14.008,9.557,23.065C288.612,258.863,284.992,266.92,279.064,272.871z" style="fill: rgb(249, 249, 255);"></path>
</g>
</svg>
